<svg id="svg" version="1.1" width="400" height="400" xmlns="http://www.w3.org/2000/svg" xmlns:xlink="http://www.w3.org/1999/xlink" style="display: block;"><g id="svgg"><path id="path0" d="M169.250 0.676 C 165.813 0.907,163.000 1.524,163.000 2.048 C 163.000 2.571,161.200 3.000,159.000 3.000 C 156.800 3.000,155.000 3.450,155.000 4.000 C 155.000 4.550,153.200 5.000,151.000 5.000 C 148.800 5.000,147.000 5.450,147.000 6.000 C 147.000 6.550,145.902 7.000,144.559 7.000 C 143.216 7.000,141.840 7.450,141.500 8.000 C 141.160 8.550,139.559 9.000,137.941 9.000 C 136.323 9.000,135.000 9.450,135.000 10.000 C 135.000 10.550,134.100 11.000,133.000 11.000 C 131.900 11.000,131.000 11.450,131.000 12.000 C 131.000 12.550,130.100 13.000,129.000 13.000 C 127.900 13.000,127.000 13.450,127.000 14.000 C 127.000 14.550,126.100 15.000,125.000 15.000 C 123.900 15.000,123.000 15.450,123.000 16.000 C 123.000 16.550,122.100 17.000,121.000 17.000 C 119.900 17.000,119.000 17.450,119.000 18.000 C 119.000 18.550,118.100 19.000,117.000 19.000 C 115.900 19.000,115.000 19.450,115.000 20.000 C 115.000 20.550,114.410 21.000,113.689 21.000 C 112.967 21.000,111.411 21.900,110.230 23.000 C 109.050 24.100,107.489 25.000,106.763 25.000 C 106.036 25.000,104.793 25.900,104.000 27.000 C 103.207 28.100,102.037 29.000,101.400 29.000 C 100.763 29.000,98.499 30.690,96.371 32.755 C 94.242 34.820,90.925 37.628,89.000 38.995 C 84.340 42.303,73.000 53.680,73.000 55.046 C 73.000 55.642,70.750 58.321,68.000 61.000 C 65.250 63.679,63.000 66.475,63.000 67.214 C 63.000 67.954,62.100 69.207,61.000 70.000 C 59.900 70.793,59.000 72.143,59.000 73.000 C 59.000 73.857,58.100 75.207,57.000 76.000 C 55.900 76.793,55.000 78.242,55.000 79.221 C 55.000 80.199,54.550 81.000,54.000 81.000 C 53.450 81.000,53.000 81.900,53.000 83.000 C 53.000 84.100,52.550 85.000,52.000 85.000 C 51.450 85.000,51.000 85.900,51.000 87.000 C 51.000 88.100,50.550 89.000,50.000 89.000 C 49.450 89.000,49.000 89.900,49.000 91.000 C 49.000 92.100,48.550 93.000,48.000 93.000 C 47.450 93.000,47.000 93.900,47.000 95.000 C 47.000 96.100,46.550 97.000,46.000 97.000 C 45.450 97.000,45.000 97.900,45.000 99.000 C 45.000 100.100,44.550 101.000,44.000 101.000 C 43.450 101.000,43.000 102.157,43.000 103.571 C 43.000 106.358,40.952 109.000,38.792 109.000 C 38.049 109.000,36.793 109.900,36.000 111.000 C 35.207 112.100,33.758 113.000,32.779 113.000 C 31.801 113.000,31.000 113.710,31.000 114.578 C 31.000 115.447,29.200 117.886,27.000 120.000 C 24.800 122.114,23.000 124.553,23.000 125.422 C 23.000 126.290,22.550 127.000,22.000 127.000 C 21.450 127.000,21.000 127.900,21.000 129.000 C 21.000 130.100,20.550 131.000,20.000 131.000 C 19.450 131.000,19.000 131.900,19.000 133.000 C 19.000 134.100,18.550 135.000,18.000 135.000 C 17.450 135.000,17.000 136.773,17.000 138.941 C 17.000 141.109,16.550 143.160,16.000 143.500 C 14.681 144.315,14.681 161.000,16.000 161.000 C 16.550 161.000,17.000 162.773,17.000 164.941 C 17.000 167.109,17.450 169.160,18.000 169.500 C 18.550 169.840,19.000 171.216,19.000 172.559 C 19.000 173.902,19.450 175.000,20.000 175.000 C 20.550 175.000,21.000 175.900,21.000 177.000 C 21.000 178.100,21.450 179.000,22.000 179.000 C 22.550 179.000,23.000 179.629,23.000 180.398 C 23.000 182.341,37.508 197.000,39.432 197.000 C 40.294 197.000,41.000 197.450,41.000 198.000 C 41.000 198.550,41.900 199.000,43.000 199.000 C 44.100 199.000,45.004 199.338,45.008 199.750 C 45.019 200.868,50.065 203.000,52.699 203.000 C 53.965 203.000,55.000 203.450,55.000 204.000 C 55.000 204.583,58.333 205.000,63.000 205.000 L 71.000 205.000 71.000 153.083 C 71.000 112.528,70.726 101.039,69.750 100.583 C 68.750 100.117,68.750 99.883,69.750 99.417 C 70.438 99.096,71.000 97.971,71.000 96.917 C 71.000 95.862,71.450 95.000,72.000 95.000 C 72.550 95.000,73.000 94.100,73.000 93.000 C 73.000 91.900,73.450 91.000,74.000 91.000 C 74.550 91.000,75.000 90.321,75.000 89.491 C 75.000 88.661,76.350 86.569,78.000 84.843 C 79.650 83.116,81.000 81.276,81.000 80.753 C 81.000 80.230,82.350 78.541,84.000 77.000 C 85.650 75.459,87.000 73.698,87.000 73.087 C 87.000 71.527,107.695 51.000,109.268 51.000 C 109.978 51.000,111.207 50.100,112.000 49.000 C 112.793 47.900,114.062 47.000,114.820 47.000 C 115.577 47.000,117.459 45.650,119.000 44.000 C 120.541 42.350,122.522 41.000,123.401 41.000 C 124.281 41.000,125.000 40.550,125.000 40.000 C 125.000 39.450,125.900 39.000,127.000 39.000 C 128.100 39.000,129.000 38.550,129.000 38.000 C 129.000 37.450,129.900 37.000,131.000 37.000 C 132.100 37.000,133.000 36.550,133.000 36.000 C 133.000 35.450,133.900 35.000,135.000 35.000 C 136.100 35.000,137.000 34.550,137.000 34.000 C 137.000 33.450,137.900 33.000,139.000 33.000 C 140.100 33.000,141.000 32.550,141.000 32.000 C 141.000 31.450,142.350 31.000,144.000 31.000 C 145.650 31.000,147.000 30.550,147.000 30.000 C 147.000 29.450,147.900 29.000,149.000 29.000 C 150.100 29.000,151.000 28.550,151.000 28.000 C 151.000 27.450,152.350 27.000,154.000 27.000 C 155.650 27.000,157.000 26.550,157.000 26.000 C 157.000 25.450,158.350 25.000,160.000 25.000 C 161.650 25.000,163.000 24.550,163.000 24.000 C 163.000 23.450,164.998 23.000,167.441 23.000 C 169.884 23.000,172.160 22.550,172.500 22.000 C 172.840 21.450,175.791 21.000,179.059 21.000 C 182.353 21.000,185.000 20.554,185.000 20.000 C 185.000 19.381,190.333 19.000,199.000 19.000 C 207.667 19.000,213.000 19.381,213.000 20.000 C 213.000 20.571,216.000 21.000,220.000 21.000 C 224.000 21.000,227.000 21.429,227.000 22.000 C 227.000 22.550,228.800 23.000,231.000 23.000 C 233.200 23.000,235.000 23.450,235.000 24.000 C 235.000 24.550,236.350 25.000,238.000 25.000 C 239.650 25.000,241.000 25.450,241.000 26.000 C 241.000 26.550,242.350 27.000,244.000 27.000 C 245.650 27.000,247.000 27.450,247.000 28.000 C 247.000 28.550,248.350 29.000,250.000 29.000 C 251.650 29.000,253.000 29.450,253.000 30.000 C 253.000 30.550,254.350 31.000,256.000 31.000 C 257.650 31.000,259.000 31.450,259.000 32.000 C 259.000 32.550,259.801 33.000,260.779 33.000 C 261.758 33.000,263.207 33.900,264.000 35.000 C 264.793 36.100,266.242 37.000,267.221 37.000 C 268.199 37.000,269.000 37.450,269.000 38.000 C 269.000 38.550,269.900 39.000,271.000 39.000 C 272.100 39.000,273.000 39.450,273.000 40.000 C 273.000 40.550,273.801 41.000,274.779 41.000 C 275.758 41.000,277.207 41.900,278.000 43.000 C 278.793 44.100,280.062 45.000,280.820 45.000 C 281.577 45.000,283.459 46.350,285.000 48.000 C 286.541 49.650,288.301 51.000,288.911 51.000 C 290.358 51.000,315.000 75.642,315.000 77.089 C 315.000 77.699,316.350 79.459,318.000 81.000 C 319.650 82.541,321.000 84.522,321.000 85.401 C 321.000 86.281,321.450 87.000,322.000 87.000 C 322.550 87.000,323.000 87.900,323.000 89.000 C 323.000 90.100,323.450 91.000,324.000 91.000 C 324.550 91.000,325.000 91.801,325.000 92.779 C 325.000 93.758,325.900 95.207,327.000 96.000 C 329.066 97.489,329.768 101.000,328.000 101.000 C 327.346 101.000,327.000 119.000,327.000 153.000 L 327.000 205.000 335.000 205.000 C 339.667 205.000,343.000 204.583,343.000 204.000 C 343.000 203.450,344.336 203.000,345.970 203.000 C 347.603 203.000,350.542 202.100,352.500 201.000 C 354.458 199.900,356.501 199.000,357.040 199.000 C 357.578 199.000,359.431 197.650,361.157 196.000 C 362.884 194.350,364.732 193.000,365.263 193.000 C 366.536 193.000,373.000 185.920,373.000 184.525 C 373.000 183.929,373.900 182.793,375.000 182.000 C 376.100 181.207,377.000 179.758,377.000 178.779 C 377.000 177.801,377.450 177.000,378.000 177.000 C 378.550 177.000,379.000 175.650,379.000 174.000 C 379.000 172.350,379.450 171.000,380.000 171.000 C 380.550 171.000,381.000 169.650,381.000 168.000 C 381.000 166.350,381.450 165.000,382.000 165.000 C 382.611 165.000,383.000 160.333,383.000 153.000 C 383.000 145.667,382.611 141.000,382.000 141.000 C 381.450 141.000,381.000 139.200,381.000 137.000 C 381.000 134.800,380.550 133.000,380.000 133.000 C 379.450 133.000,379.000 132.100,379.000 131.000 C 379.000 129.900,378.550 129.000,378.000 129.000 C 377.450 129.000,377.000 128.199,377.000 127.221 C 377.000 126.242,376.100 124.793,375.000 124.000 C 373.900 123.207,372.995 122.095,372.989 121.529 C 372.974 120.060,364.443 111.000,363.075 111.000 C 361.165 111.000,355.000 104.199,355.000 102.092 C 355.000 101.006,354.550 99.840,354.000 99.500 C 353.450 99.160,353.000 98.009,353.000 96.941 C 353.000 95.873,352.550 95.000,352.000 95.000 C 351.450 95.000,351.000 94.100,351.000 93.000 C 351.000 91.900,350.550 91.000,350.000 91.000 C 349.450 91.000,349.000 90.100,349.000 89.000 C 349.000 87.900,348.550 87.000,348.000 87.000 C 347.450 87.000,347.000 86.100,347.000 85.000 C 347.000 83.900,346.550 83.000,346.000 83.000 C 345.450 83.000,345.000 82.199,345.000 81.221 C 345.000 80.242,344.100 78.793,343.000 78.000 C 341.900 77.207,341.000 75.857,341.000 75.000 C 341.000 74.143,340.100 72.793,339.000 72.000 C 337.900 71.207,337.000 69.857,337.000 69.000 C 337.000 68.143,336.100 66.793,335.000 66.000 C 333.900 65.207,333.000 64.009,333.000 63.337 C 333.000 61.777,306.538 35.000,304.997 35.000 C 304.362 35.000,302.114 33.200,300.000 31.000 C 297.886 28.800,295.546 27.000,294.799 27.000 C 294.052 27.000,292.793 26.100,292.000 25.000 C 291.207 23.900,289.758 23.000,288.779 23.000 C 287.801 23.000,287.000 22.550,287.000 22.000 C 287.000 21.450,286.100 21.000,285.000 21.000 C 283.900 21.000,283.000 20.550,283.000 20.000 C 283.000 19.450,282.100 19.000,281.000 19.000 C 279.900 19.000,279.000 18.550,279.000 18.000 C 279.000 17.450,278.100 17.000,277.000 17.000 C 275.900 17.000,274.996 16.663,274.992 16.250 C 274.983 15.352,270.140 13.000,268.301 13.000 C 267.585 13.000,267.000 12.550,267.000 12.000 C 267.000 11.450,266.100 11.000,265.000 11.000 C 263.900 11.000,263.000 10.550,263.000 10.000 C 263.000 9.450,261.650 9.000,260.000 9.000 C 258.350 9.000,257.000 8.550,257.000 8.000 C 257.000 7.450,255.650 7.000,254.000 7.000 C 252.350 7.000,251.000 6.550,251.000 6.000 C 251.000 5.450,249.677 5.000,248.059 5.000 C 246.441 5.000,244.840 4.550,244.500 4.000 C 244.160 3.450,241.921 3.000,239.524 3.000 C 237.081 3.000,234.995 2.485,234.776 1.828 C 234.379 0.638,183.213 -0.261,169.250 0.676 M185.500 50.000 C 185.160 50.550,182.209 51.000,178.941 51.000 C 175.647 51.000,173.000 51.446,173.000 52.000 C 173.000 52.550,171.200 53.000,169.000 53.000 C 166.800 53.000,165.000 53.450,165.000 54.000 C 165.000 54.550,163.650 55.000,162.000 55.000 C 160.350 55.000,159.000 55.450,159.000 56.000 C 159.000 56.550,157.902 57.000,156.559 57.000 C 155.216 57.000,153.840 57.450,153.500 58.000 C 153.160 58.550,152.009 59.000,150.941 59.000 C 149.873 59.000,149.000 59.450,149.000 60.000 C 149.000 60.550,148.100 61.000,147.000 61.000 C 145.900 61.000,145.000 61.450,145.000 62.000 C 145.000 62.550,144.199 63.000,143.221 63.000 C 142.242 63.000,140.793 63.900,140.000 65.000 C 139.207 66.100,137.758 67.000,136.779 67.000 C 135.801 67.000,135.000 67.450,135.000 68.000 C 135.000 68.550,134.290 69.000,133.422 69.000 C 132.553 69.000,130.114 70.800,128.000 73.000 C 125.886 75.200,123.662 77.000,123.057 77.000 C 121.611 77.000,111.000 87.629,111.000 89.077 C 111.000 89.693,109.650 91.459,108.000 93.000 C 106.350 94.541,105.000 96.423,105.000 97.180 C 105.000 97.938,104.100 99.207,103.000 100.000 C 101.900 100.793,101.000 102.242,101.000 103.221 C 101.000 104.199,100.550 105.000,100.000 105.000 C 99.450 105.000,99.000 105.801,99.000 106.779 C 99.000 107.758,98.100 109.207,97.000 110.000 C 95.826 110.847,95.000 112.589,95.000 114.221 C 95.000 115.749,94.550 117.000,94.000 117.000 C 93.450 117.000,93.000 117.900,93.000 119.000 C 93.000 120.100,92.550 121.000,92.000 121.000 C 91.450 121.000,91.000 122.350,91.000 124.000 C 91.000 125.650,90.550 127.000,90.000 127.000 C 89.450 127.000,89.000 128.350,89.000 130.000 C 89.000 131.650,88.550 133.000,88.000 133.000 C 87.444 133.000,87.000 135.667,87.000 139.000 C 87.000 142.333,86.556 145.000,86.000 145.000 C 85.373 145.000,85.000 151.333,85.000 162.000 C 85.000 172.667,85.373 179.000,86.000 179.000 C 86.550 179.000,87.000 181.250,87.000 184.000 C 87.000 186.750,87.450 189.000,88.000 189.000 C 88.550 189.000,89.000 190.548,89.000 192.441 C 89.000 194.334,89.450 196.160,90.000 196.500 C 90.550 196.840,91.000 197.991,91.000 199.059 C 91.000 200.127,91.450 201.000,92.000 201.000 C 92.550 201.000,93.000 202.350,93.000 204.000 C 93.000 205.650,93.450 207.000,94.000 207.000 C 94.550 207.000,95.000 207.900,95.000 209.000 C 95.000 210.100,95.450 211.000,96.000 211.000 C 96.550 211.000,97.000 211.900,97.000 213.000 C 97.000 214.100,97.450 215.000,98.000 215.000 C 98.550 215.000,99.000 215.801,99.000 216.779 C 99.000 217.758,99.900 219.207,101.000 220.000 C 102.100 220.793,103.000 222.143,103.000 223.000 C 103.000 223.857,103.900 225.207,105.000 226.000 C 106.100 226.793,107.000 228.022,107.000 228.732 C 107.000 230.417,127.583 251.000,129.268 251.000 C 129.978 251.000,131.207 251.900,132.000 253.000 C 132.793 254.100,134.143 255.000,135.000 255.000 C 135.857 255.000,137.207 255.900,138.000 257.000 C 138.793 258.100,140.242 259.000,141.221 259.000 C 142.199 259.000,143.000 259.450,143.000 260.000 C 143.000 260.550,143.900 261.000,145.000 261.000 C 146.100 261.000,147.000 261.450,147.000 262.000 C 147.000 262.550,147.873 263.000,148.941 263.000 C 150.009 263.000,151.160 263.450,151.500 264.000 C 151.840 264.550,153.216 265.000,154.559 265.000 C 155.902 265.000,157.000 265.450,157.000 266.000 C 157.000 266.550,158.350 267.000,160.000 267.000 C 161.650 267.000,163.000 267.450,163.000 268.000 C 163.000 268.550,164.323 269.000,165.941 269.000 C 167.559 269.000,169.160 269.450,169.500 270.000 C 169.840 270.550,172.090 271.000,174.500 271.000 C 176.910 271.000,179.160 271.450,179.500 272.000 C 180.339 273.357,219.000 273.357,219.000 272.000 C 219.000 271.450,221.250 271.000,224.000 271.000 C 226.750 271.000,229.000 270.550,229.000 270.000 C 229.000 269.450,230.548 269.000,232.441 269.000 C 234.334 269.000,236.160 268.550,236.500 268.000 C 236.840 267.450,238.441 267.000,240.059 267.000 C 241.677 267.000,243.000 266.550,243.000 266.000 C 243.000 265.450,243.900 265.000,245.000 265.000 C 246.100 265.000,247.000 264.550,247.000 264.000 C 247.000 263.450,247.900 263.000,249.000 263.000 C 250.100 263.000,251.000 262.550,251.000 262.000 C 251.000 261.450,251.900 261.000,253.000 261.000 C 254.100 261.000,255.000 260.550,255.000 260.000 C 255.000 259.450,255.900 259.000,257.000 259.000 C 258.100 259.000,259.000 258.550,259.000 258.000 C 259.000 257.450,259.563 256.999,260.250 256.998 C 260.938 256.996,263.075 255.647,265.000 254.000 C 266.925 252.353,268.873 251.004,269.328 251.002 C 269.784 251.001,271.886 249.200,274.000 247.000 C 276.114 244.800,278.553 243.000,279.422 243.000 C 280.290 243.000,281.000 242.300,281.000 241.445 C 281.000 240.589,283.700 237.239,287.000 234.000 C 290.300 230.761,293.000 227.510,293.000 226.776 C 293.000 226.042,293.900 224.793,295.000 224.000 C 296.100 223.207,297.000 221.857,297.000 221.000 C 297.000 220.143,297.900 218.793,299.000 218.000 C 300.100 217.207,301.000 215.758,301.000 214.779 C 301.000 213.801,301.450 213.000,302.000 213.000 C 302.550 213.000,303.000 212.127,303.000 211.059 C 303.000 209.991,303.450 208.840,304.000 208.500 C 304.550 208.160,305.000 206.784,305.000 205.441 C 305.000 204.098,305.450 203.000,306.000 203.000 C 306.550 203.000,307.000 202.127,307.000 201.059 C 307.000 199.991,307.450 198.840,308.000 198.500 C 308.550 198.160,309.000 196.334,309.000 194.441 C 309.000 192.548,309.450 191.000,310.000 191.000 C 310.550 191.000,311.000 188.750,311.000 186.000 C 311.000 183.250,311.450 181.000,312.000 181.000 C 312.633 181.000,313.000 173.667,313.000 161.000 C 313.000 148.333,312.633 141.000,312.000 141.000 C 311.450 141.000,311.000 139.200,311.000 137.000 C 311.000 134.800,310.550 133.000,310.000 133.000 C 309.450 133.000,309.000 131.200,309.000 129.000 C 309.000 126.800,308.550 125.000,308.000 125.000 C 307.450 125.000,307.000 123.650,307.000 122.000 C 307.000 120.350,306.550 119.000,306.000 119.000 C 305.450 119.000,305.000 118.100,305.000 117.000 C 305.000 115.900,304.550 115.000,304.000 115.000 C 303.450 115.000,303.000 114.100,303.000 113.000 C 303.000 111.900,302.550 111.000,302.000 111.000 C 301.450 111.000,301.000 110.100,301.000 109.000 C 301.000 107.900,300.550 107.000,300.000 107.000 C 299.450 107.000,299.000 106.199,299.000 105.221 C 299.000 104.242,298.100 102.793,297.000 102.000 C 295.900 101.207,295.000 99.857,295.000 99.000 C 295.000 98.143,294.100 96.793,293.000 96.000 C 291.900 95.207,291.000 93.958,291.000 93.223 C 291.000 91.666,272.341 73.000,270.784 73.000 C 270.207 73.000,269.006 72.213,268.115 71.250 C 266.273 69.261,261.356 66.148,258.750 65.322 C 257.788 65.016,257.000 64.369,257.000 63.883 C 257.000 63.398,256.100 63.000,255.000 63.000 C 253.900 63.000,253.000 62.550,253.000 62.000 C 253.000 61.450,252.100 61.000,251.000 61.000 C 249.900 61.000,249.000 60.550,249.000 60.000 C 249.000 59.450,248.100 59.000,247.000 59.000 C 245.900 59.000,245.000 58.550,245.000 58.000 C 245.000 57.450,243.650 57.000,242.000 57.000 C 240.350 57.000,239.000 56.550,239.000 56.000 C 239.000 55.450,237.650 55.000,236.000 55.000 C 234.350 55.000,233.000 54.550,233.000 54.000 C 233.000 53.450,231.200 53.000,229.000 53.000 C 226.800 53.000,225.000 52.550,225.000 52.000 C 225.000 51.444,222.333 51.000,219.000 51.000 C 215.667 51.000,213.000 50.556,213.000 50.000 C 213.000 49.383,207.853 49.000,199.559 49.000 C 191.677 49.000,185.862 49.414,185.500 50.000 M83.000 262.000 C 83.000 262.550,82.100 263.000,81.000 263.000 C 79.900 263.000,79.000 263.450,79.000 264.000 C 79.000 264.550,78.100 265.000,77.000 265.000 C 75.900 265.000,75.000 265.450,75.000 266.000 C 75.000 266.550,74.410 267.000,73.689 267.000 C 72.967 267.000,71.411 267.900,70.230 269.000 C 69.050 270.100,67.489 271.000,66.763 271.000 C 66.036 271.000,64.793 271.900,64.000 273.000 C 63.207 274.100,61.938 275.000,61.180 275.000 C 60.423 275.000,58.541 276.350,57.000 278.000 C 55.459 279.650,53.697 281.000,53.086 281.000 C 51.648 281.000,33.000 299.629,33.000 301.066 C 33.000 301.666,31.200 303.886,29.000 306.000 C 26.800 308.114,25.000 310.454,25.000 311.201 C 25.000 311.948,24.100 313.207,23.000 314.000 C 21.900 314.793,21.000 316.036,21.000 316.763 C 21.000 317.489,20.100 319.050,19.000 320.230 C 17.900 321.411,17.000 322.967,17.000 323.689 C 17.000 324.410,16.550 325.000,16.000 325.000 C 15.450 325.000,15.000 325.900,15.000 327.000 C 15.000 328.100,14.550 329.000,14.000 329.000 C 13.450 329.000,13.000 329.900,13.000 331.000 C 13.000 332.100,12.550 333.000,12.000 333.000 C 11.450 333.000,11.000 333.873,11.000 334.941 C 11.000 336.009,10.550 337.160,10.000 337.500 C 9.450 337.840,9.000 339.216,9.000 340.559 C 9.000 341.902,8.550 343.000,8.000 343.000 C 7.450 343.000,7.000 344.350,7.000 346.000 C 7.000 347.650,6.550 349.000,6.000 349.000 C 5.450 349.000,5.000 350.350,5.000 352.000 C 5.000 353.650,4.550 355.000,4.000 355.000 C 3.450 355.000,3.000 356.260,3.000 357.800 C 3.000 359.340,2.520 361.080,1.933 361.667 C 1.300 362.300,0.628 370.302,0.279 381.367 L -0.308 400.000 199.996 400.000 L 400.300 400.000 399.737 381.779 C 399.374 370.020,398.789 363.430,398.087 363.196 C 397.489 362.996,397.000 361.071,397.000 358.917 C 397.000 356.762,396.550 355.000,396.000 355.000 C 395.450 355.000,395.000 353.650,395.000 352.000 C 395.000 350.350,394.550 349.000,394.000 349.000 C 393.450 349.000,393.000 347.650,393.000 346.000 C 393.000 344.350,392.550 343.000,392.000 343.000 C 391.450 343.000,391.000 342.100,391.000 341.000 C 391.000 339.900,390.550 339.000,390.000 339.000 C 389.450 339.000,389.000 337.650,389.000 336.000 C 389.000 334.350,388.550 333.000,388.000 333.000 C 387.450 333.000,387.000 332.199,387.000 331.221 C 387.000 330.242,386.100 328.793,385.000 328.000 C 383.900 327.207,383.000 325.758,383.000 324.779 C 383.000 323.801,382.550 323.000,382.000 323.000 C 381.450 323.000,381.000 322.100,381.000 321.000 C 381.000 319.900,380.550 319.000,380.000 319.000 C 379.450 319.000,379.000 318.392,379.000 317.648 C 379.000 316.905,377.650 314.884,376.000 313.157 C 374.350 311.431,373.000 309.529,373.000 308.931 C 373.000 308.333,371.200 306.114,369.000 304.000 C 366.800 301.886,365.000 299.742,365.000 299.234 C 365.000 297.955,354.279 287.000,353.027 287.000 C 352.468 287.000,349.712 284.750,346.904 282.000 C 344.095 279.250,341.267 277.000,340.619 277.000 C 339.972 277.000,338.793 276.100,338.000 275.000 C 337.207 273.900,335.857 273.000,335.000 273.000 C 334.143 273.000,332.793 272.100,332.000 271.000 C 331.207 269.900,329.758 269.000,328.779 269.000 C 327.801 269.000,327.000 268.550,327.000 268.000 C 327.000 267.450,326.199 267.000,325.221 267.000 C 324.242 267.000,322.793 266.100,322.000 265.000 C 321.207 263.900,319.758 263.000,318.779 263.000 C 317.801 263.000,317.000 262.550,317.000 262.000 C 317.000 259.062,307.812 261.031,304.172 264.750 C 302.152 266.813,299.262 269.139,297.750 269.919 C 296.238 270.699,295.000 271.712,295.000 272.169 C 295.000 272.626,294.199 273.000,293.221 273.000 C 292.242 273.000,290.793 273.900,290.000 275.000 C 289.207 276.100,287.857 277.000,287.000 277.000 C 286.143 277.000,284.793 277.900,284.000 279.000 C 283.207 280.100,281.758 281.000,280.779 281.000 C 279.801 281.000,279.000 281.450,279.000 282.000 C 279.000 282.550,278.100 283.000,277.000 283.000 C 275.900 283.000,274.996 283.337,274.992 283.750 C 274.983 284.648,270.140 287.000,268.301 287.000 C 267.585 287.000,267.000 287.450,267.000 288.000 C 267.000 288.550,266.100 289.000,265.000 289.000 C 263.900 289.000,263.000 289.450,263.000 290.000 C 263.000 290.550,262.100 291.000,261.000 291.000 C 259.900 291.000,259.000 291.450,259.000 292.000 C 259.000 292.550,257.677 293.000,256.059 293.000 C 254.441 293.000,252.840 293.450,252.500 294.000 C 252.160 294.550,250.784 295.000,249.441 295.000 C 248.098 295.000,247.000 295.450,247.000 296.000 C 247.000 296.550,245.200 297.000,243.000 297.000 C 240.800 297.000,239.000 297.450,239.000 298.000 C 239.000 298.550,237.200 299.000,235.000 299.000 C 232.800 299.000,231.000 299.450,231.000 300.000 C 231.000 300.563,228.186 301.000,224.559 301.000 C 221.016 301.000,217.840 301.450,217.500 302.000 C 217.125 302.607,209.823 303.000,198.941 303.000 C 187.647 303.000,181.000 302.630,181.000 302.000 C 181.000 301.429,178.000 301.000,174.000 301.000 C 170.000 301.000,167.000 300.571,167.000 300.000 C 167.000 299.450,165.200 299.000,163.000 299.000 C 160.800 299.000,159.000 298.550,159.000 298.000 C 159.000 297.450,157.650 297.000,156.000 297.000 C 154.350 297.000,153.000 296.550,153.000 296.000 C 153.000 295.450,151.650 295.000,150.000 295.000 C 148.350 295.000,147.000 294.550,147.000 294.000 C 147.000 293.450,145.889 293.000,144.530 293.000 C 143.172 293.000,140.458 292.100,138.500 291.000 C 136.542 289.900,134.053 289.000,132.970 289.000 C 131.886 289.000,131.000 288.550,131.000 288.000 C 131.000 287.450,130.100 287.000,129.000 287.000 C 127.900 287.000,127.000 286.550,127.000 286.000 C 127.000 285.450,126.100 285.000,125.000 285.000 C 123.900 285.000,123.000 284.550,123.000 284.000 C 123.000 283.450,122.199 283.000,121.221 283.000 C 120.242 283.000,118.793 282.100,118.000 281.000 C 117.207 279.900,115.758 279.000,114.779 279.000 C 113.801 279.000,113.000 278.550,113.000 278.000 C 113.000 277.450,112.199 277.000,111.221 277.000 C 110.242 277.000,108.793 276.100,108.000 275.000 C 107.207 273.900,105.938 273.000,105.180 273.000 C 104.423 273.000,102.541 271.650,101.000 270.000 C 99.459 268.350,97.659 267.000,97.000 267.000 C 96.341 267.000,94.541 265.650,93.000 264.000 C 90.204 261.007,83.000 259.566,83.000 262.000 " stroke="none" fill="#ffffff" fill-rule="evenodd"></path></g></svg>