<svg id="svg" version="1.1" width="400" height="400" xmlns="http://www.w3.org/2000/svg" xmlns:xlink="http://www.w3.org/1999/xlink" style="display: block;"><g id="svgg"><path id="path0" d="M176.250 0.670 C 171.162 0.893,167.000 1.508,167.000 2.038 C 167.000 2.567,164.750 3.000,162.000 3.000 C 159.250 3.000,157.000 3.450,157.000 4.000 C 157.000 4.550,154.750 5.000,152.000 5.000 C 149.250 5.000,147.000 5.450,147.000 6.000 C 147.000 6.550,145.650 7.000,144.000 7.000 C 142.350 7.000,141.000 7.450,141.000 8.000 C 141.000 8.550,139.650 9.000,138.000 9.000 C 136.350 9.000,135.000 9.450,135.000 10.000 C 135.000 10.550,133.650 11.000,132.000 11.000 C 130.350 11.000,129.000 11.450,129.000 12.000 C 129.000 12.550,127.902 13.000,126.559 13.000 C 125.216 13.000,123.840 13.450,123.500 14.000 C 123.160 14.550,122.009 15.000,120.941 15.000 C 119.873 15.000,119.000 15.450,119.000 16.000 C 119.000 16.550,118.100 17.000,117.000 17.000 C 115.900 17.000,115.000 17.450,115.000 18.000 C 115.000 18.550,114.100 19.000,113.000 19.000 C 111.900 19.000,111.000 19.450,111.000 20.000 C 111.000 20.550,110.100 21.000,109.000 21.000 C 107.900 21.000,107.000 21.450,107.000 22.000 C 107.000 22.550,106.100 23.000,105.000 23.000 C 103.900 23.000,103.000 23.450,103.000 24.000 C 103.000 24.550,102.199 25.000,101.221 25.000 C 100.242 25.000,98.793 25.900,98.000 27.000 C 97.207 28.100,95.857 29.000,95.000 29.000 C 94.143 29.000,92.793 29.900,92.000 31.000 C 91.207 32.100,89.857 33.000,89.000 33.000 C 88.143 33.000,86.793 33.900,86.000 35.000 C 85.207 36.100,83.948 37.000,83.201 37.000 C 82.454 37.000,80.114 38.800,78.000 41.000 C 75.886 43.200,73.689 45.000,73.117 45.000 C 71.809 45.000,53.000 63.734,53.000 65.037 C 53.000 65.566,51.200 67.852,49.000 70.119 C 46.800 72.386,45.000 74.763,45.000 75.400 C 45.000 76.037,44.100 77.207,43.000 78.000 C 41.900 78.793,41.000 80.036,41.000 80.763 C 41.000 81.489,40.100 83.050,39.000 84.230 C 37.900 85.411,37.000 86.967,37.000 87.689 C 37.000 88.410,36.550 89.000,36.000 89.000 C 35.450 89.000,35.000 89.900,35.000 91.000 C 35.000 92.100,34.550 93.000,34.000 93.000 C 33.450 93.000,33.000 93.900,33.000 95.000 C 33.000 96.100,32.550 97.000,32.000 97.000 C 31.450 97.000,31.000 97.694,31.000 98.542 C 31.000 99.390,30.100 101.050,29.000 102.230 C 27.900 103.411,27.000 105.417,27.000 106.689 C 27.000 107.960,26.550 109.000,26.000 109.000 C 25.450 109.000,25.000 109.900,25.000 111.000 C 25.000 112.100,24.550 113.000,24.000 113.000 C 23.450 113.000,23.000 114.350,23.000 116.000 C 23.000 117.650,22.550 119.000,22.000 119.000 C 21.450 119.000,21.000 120.350,21.000 122.000 C 21.000 123.650,20.550 125.000,20.000 125.000 C 19.450 125.000,19.000 126.350,19.000 128.000 C 19.000 129.650,18.550 131.000,18.000 131.000 C 17.450 131.000,17.000 132.800,17.000 135.000 C 17.000 137.200,16.550 139.000,16.000 139.000 C 15.444 139.000,15.000 141.667,15.000 145.000 C 15.000 148.333,14.556 151.000,14.000 151.000 C 13.394 151.000,13.000 155.333,13.000 162.000 C 13.000 168.667,12.606 173.000,12.000 173.000 C 10.696 173.000,10.696 179.694,12.000 180.500 C 12.568 180.851,13.000 185.844,13.000 192.059 C 13.000 198.686,13.394 203.000,14.000 203.000 C 14.556 203.000,15.000 205.667,15.000 209.000 C 15.000 212.333,15.444 215.000,16.000 215.000 C 16.550 215.000,17.000 216.800,17.000 219.000 C 17.000 221.200,17.450 223.000,18.000 223.000 C 18.550 223.000,19.000 224.350,19.000 226.000 C 19.000 227.650,19.450 229.000,20.000 229.000 C 20.550 229.000,21.000 230.350,21.000 232.000 C 21.000 233.650,21.450 235.000,22.000 235.000 C 22.550 235.000,23.000 236.350,23.000 238.000 C 23.000 239.650,23.450 241.000,24.000 241.000 C 24.550 241.000,25.000 241.900,25.000 243.000 C 25.000 244.100,25.450 245.000,26.000 245.000 C 26.550 245.000,27.000 246.040,27.000 247.311 C 27.000 248.583,27.900 250.589,29.000 251.770 C 30.100 252.950,31.000 254.610,31.000 255.458 C 31.000 256.306,31.450 257.000,32.000 257.000 C 32.550 257.000,33.000 257.900,33.000 259.000 C 33.000 260.100,33.450 261.000,34.000 261.000 C 34.550 261.000,35.000 261.900,35.000 263.000 C 35.000 264.100,35.450 265.000,36.000 265.000 C 36.550 265.000,37.000 265.801,37.000 266.779 C 37.000 267.758,37.900 269.207,39.000 270.000 C 40.100 270.793,41.000 272.143,41.000 273.000 C 41.000 273.857,41.900 275.207,43.000 276.000 C 44.100 276.793,45.000 277.972,45.000 278.619 C 45.000 279.267,47.250 282.095,50.000 284.904 C 52.750 287.712,55.000 290.465,55.000 291.021 C 55.000 292.340,69.660 307.000,70.979 307.000 C 71.535 307.000,74.288 309.250,77.096 312.000 C 79.905 314.750,82.733 317.000,83.381 317.000 C 84.028 317.000,85.207 317.900,86.000 319.000 C 86.793 320.100,88.143 321.000,89.000 321.000 C 89.857 321.000,91.207 321.900,92.000 323.000 C 92.793 324.100,94.242 325.000,95.221 325.000 C 96.199 325.000,97.000 325.450,97.000 326.000 C 97.000 326.550,97.801 327.000,98.779 327.000 C 99.758 327.000,101.207 327.900,102.000 329.000 C 102.793 330.100,104.242 331.000,105.221 331.000 C 106.199 331.000,107.000 331.450,107.000 332.000 C 107.000 332.550,107.900 333.000,109.000 333.000 C 110.100 333.000,111.000 333.450,111.000 334.000 C 111.000 334.550,111.900 335.000,113.000 335.000 C 114.100 335.000,115.000 335.450,115.000 336.000 C 115.000 336.550,115.900 337.000,117.000 337.000 C 118.100 337.000,119.000 337.450,119.000 338.000 C 119.000 338.550,120.350 339.000,122.000 339.000 C 123.650 339.000,125.000 339.450,125.000 340.000 C 125.000 340.550,125.900 341.000,127.000 341.000 C 128.100 341.000,129.000 341.450,129.000 342.000 C 129.000 342.550,130.350 343.000,132.000 343.000 C 133.650 343.000,135.000 343.450,135.000 344.000 C 135.000 344.550,136.350 345.000,138.000 345.000 C 139.650 345.000,141.000 345.450,141.000 346.000 C 141.000 346.550,142.800 347.000,145.000 347.000 C 147.200 347.000,149.000 347.450,149.000 348.000 C 149.000 348.550,150.800 349.000,153.000 349.000 C 155.200 349.000,157.000 349.450,157.000 350.000 C 157.000 350.556,159.667 351.000,163.000 351.000 C 166.333 351.000,169.000 351.444,169.000 352.000 C 169.000 352.600,172.980 353.000,178.941 353.000 C 184.490 353.000,189.155 353.442,189.500 354.000 C 189.856 354.576,195.157 355.000,202.000 355.000 C 208.843 355.000,214.144 354.576,214.500 354.000 C 214.840 353.450,218.440 353.000,222.500 353.000 C 226.560 353.000,230.160 352.550,230.500 352.000 C 230.840 351.450,233.341 351.000,236.059 351.000 C 238.777 351.000,241.000 350.550,241.000 350.000 C 241.000 349.450,242.800 349.000,245.000 349.000 C 247.200 349.000,249.000 349.374,249.000 349.831 C 249.000 350.288,250.238 351.298,251.750 352.074 C 253.262 352.851,255.228 354.277,256.117 355.243 C 257.007 356.209,258.370 357.000,259.147 357.000 C 259.923 357.000,261.207 357.900,262.000 359.000 C 262.793 360.100,264.021 361.000,264.730 361.000 C 265.438 361.000,267.431 362.350,269.157 364.000 C 270.884 365.650,272.806 367.000,273.428 367.000 C 274.050 367.000,275.207 367.900,276.000 369.000 C 276.793 370.100,278.143 371.000,279.000 371.000 C 279.857 371.000,281.207 371.900,282.000 373.000 C 282.793 374.100,284.143 375.000,285.000 375.000 C 285.857 375.000,287.207 375.900,288.000 377.000 C 288.793 378.100,290.143 379.000,291.000 379.000 C 291.857 379.000,293.207 379.900,294.000 381.000 C 294.793 382.100,296.021 383.000,296.730 383.000 C 297.438 383.000,299.431 384.350,301.157 386.000 C 302.884 387.650,304.806 389.000,305.428 389.000 C 306.050 389.000,307.207 389.900,308.000 391.000 C 308.793 392.100,310.143 393.000,311.000 393.000 C 311.857 393.000,313.207 393.900,314.000 395.000 C 314.793 396.100,316.049 397.000,316.792 397.000 C 317.535 397.000,318.818 397.675,319.643 398.500 C 320.468 399.325,322.461 400.000,324.071 400.000 L 327.000 400.000 327.000 393.059 C 327.000 389.241,326.550 385.840,326.000 385.500 C 325.403 385.131,325.000 378.676,325.000 369.500 C 325.000 360.324,324.597 353.869,324.000 353.500 C 323.406 353.133,323.000 346.823,323.000 337.941 C 323.000 328.647,322.622 323.000,322.000 323.000 C 321.450 323.000,321.000 320.960,321.000 318.467 C 321.000 314.060,325.842 307.000,328.864 307.000 C 330.226 307.000,345.000 292.341,345.000 290.990 C 345.000 290.359,346.800 288.114,349.000 286.000 C 351.200 283.886,353.000 281.627,353.000 280.980 C 353.000 280.332,354.350 278.541,356.000 277.000 C 357.650 275.459,359.000 273.577,359.000 272.820 C 359.000 272.062,359.900 270.793,361.000 270.000 C 362.100 269.207,363.000 267.758,363.000 266.779 C 363.000 265.801,363.450 265.000,364.000 265.000 C 364.550 265.000,365.000 264.199,365.000 263.221 C 365.000 262.242,365.900 260.793,367.000 260.000 C 368.100 259.207,369.000 258.073,369.000 257.479 C 369.000 255.812,371.408 251.017,372.250 251.008 C 372.663 251.004,373.000 249.650,373.000 248.000 C 373.000 246.350,373.450 245.000,374.000 245.000 C 374.550 245.000,375.000 244.100,375.000 243.000 C 375.000 241.900,375.450 241.000,376.000 241.000 C 376.550 241.000,377.000 239.650,377.000 238.000 C 377.000 236.350,377.450 235.000,378.000 235.000 C 378.550 235.000,379.000 233.650,379.000 232.000 C 379.000 230.350,379.450 229.000,380.000 229.000 C 380.550 229.000,381.000 227.650,381.000 226.000 C 381.000 224.350,381.450 223.000,382.000 223.000 C 382.550 223.000,383.000 221.200,383.000 219.000 C 383.000 216.800,383.450 215.000,384.000 215.000 C 384.550 215.000,385.000 212.777,385.000 210.059 C 385.000 207.341,385.450 204.840,386.000 204.500 C 386.563 204.152,387.000 199.343,387.000 193.500 C 387.000 187.657,387.437 182.848,388.000 182.500 C 388.550 182.160,389.000 179.434,389.000 176.441 C 389.000 173.448,388.550 171.000,388.000 171.000 C 387.397 171.000,387.000 166.853,387.000 160.559 C 387.000 154.677,386.563 149.848,386.000 149.500 C 385.450 149.160,385.000 146.209,385.000 142.941 C 385.000 139.647,384.554 137.000,384.000 137.000 C 383.450 137.000,383.000 135.650,383.000 134.000 C 383.000 132.350,382.550 131.000,382.000 131.000 C 381.450 131.000,381.000 129.452,381.000 127.559 C 381.000 125.666,380.550 123.840,380.000 123.500 C 379.450 123.160,379.000 122.009,379.000 120.941 C 379.000 119.873,378.550 119.000,378.000 119.000 C 377.450 119.000,377.000 117.650,377.000 116.000 C 377.000 114.350,376.550 113.000,376.000 113.000 C 375.450 113.000,375.003 112.213,375.007 111.250 C 375.016 109.001,364.994 89.000,363.858 89.000 C 363.386 89.000,363.000 88.199,363.000 87.221 C 363.000 86.242,362.100 84.793,361.000 84.000 C 359.900 83.207,359.000 81.857,359.000 81.000 C 359.000 80.143,358.100 78.793,357.000 78.000 C 355.900 77.207,355.000 76.037,355.000 75.400 C 355.000 74.763,353.200 72.386,351.000 70.119 C 348.800 67.852,347.000 65.586,347.000 65.082 C 347.000 63.741,328.315 45.000,326.978 45.000 C 326.354 45.000,324.114 43.200,322.000 41.000 C 319.886 38.800,317.612 37.000,316.946 37.000 C 316.280 37.000,315.007 36.209,314.117 35.243 C 313.228 34.277,311.262 32.851,309.750 32.074 C 308.238 31.298,307.000 30.288,307.000 29.831 C 307.000 29.374,306.199 29.000,305.221 29.000 C 304.242 29.000,302.793 28.100,302.000 27.000 C 301.207 25.900,299.758 25.000,298.779 25.000 C 297.801 25.000,297.000 24.550,297.000 24.000 C 297.000 23.450,296.100 23.000,295.000 23.000 C 293.900 23.000,293.000 22.550,293.000 22.000 C 293.000 21.450,292.100 21.000,291.000 21.000 C 289.900 21.000,289.000 20.550,289.000 20.000 C 289.000 19.450,288.100 19.000,287.000 19.000 C 285.900 19.000,285.000 18.550,285.000 18.000 C 285.000 17.450,284.100 17.000,283.000 17.000 C 281.900 17.000,281.000 16.550,281.000 16.000 C 281.000 15.450,280.127 15.000,279.059 15.000 C 277.991 15.000,276.840 14.550,276.500 14.000 C 276.160 13.450,274.784 13.000,273.441 13.000 C 272.098 13.000,271.000 12.550,271.000 12.000 C 271.000 11.450,269.650 11.000,268.000 11.000 C 266.350 11.000,265.000 10.550,265.000 10.000 C 265.000 9.450,263.650 9.000,262.000 9.000 C 260.350 9.000,259.000 8.550,259.000 8.000 C 259.000 7.450,257.650 7.000,256.000 7.000 C 254.350 7.000,253.000 6.550,253.000 6.000 C 253.000 5.450,250.750 5.000,248.000 5.000 C 245.250 5.000,243.000 4.550,243.000 4.000 C 243.000 3.450,240.787 3.000,238.083 3.000 C 235.379 3.000,233.017 2.562,232.833 2.026 C 232.470 0.966,191.759 -0.010,176.250 0.670 M227.000 64.000 C 227.000 64.550,227.900 65.000,229.000 65.000 C 230.100 65.000,231.000 65.450,231.000 66.000 C 231.000 66.550,231.585 67.000,232.301 67.000 C 234.140 67.000,238.983 69.352,238.992 70.250 C 238.996 70.662,239.900 71.000,241.000 71.000 C 242.100 71.000,243.000 71.450,243.000 72.000 C 243.000 72.550,243.679 73.000,244.509 73.000 C 245.339 73.000,247.431 74.350,249.157 76.000 C 250.884 77.650,252.688 79.000,253.167 79.000 C 254.278 79.000,267.000 91.685,267.000 92.793 C 267.000 93.249,267.788 94.518,268.750 95.612 C 271.224 98.424,273.000 101.716,273.000 103.486 C 273.000 104.319,273.450 105.000,274.000 105.000 C 274.550 105.000,275.000 106.350,275.000 108.000 C 275.000 109.650,275.450 111.000,276.000 111.000 C 276.629 111.000,277.000 117.507,277.000 128.522 L 277.000 146.043 271.522 151.522 C 268.509 154.535,265.605 157.000,265.069 157.000 C 264.533 157.000,258.695 162.375,252.096 168.945 C 245.496 175.515,238.950 181.642,237.548 182.560 C 236.147 183.479,235.000 184.625,235.000 185.108 C 235.000 185.590,230.950 190.066,226.000 195.054 C 221.050 200.042,217.000 204.671,217.000 205.341 C 217.000 206.011,216.100 207.207,215.000 208.000 C 213.295 209.229,213.000 210.589,213.000 217.221 L 213.000 225.000 197.000 225.000 L 181.000 225.000 181.000 207.484 L 181.000 189.968 188.484 182.484 C 192.600 178.368,196.402 175.000,196.932 175.000 C 197.463 175.000,202.873 170.050,208.955 164.000 C 215.037 157.950,220.415 153.000,220.904 153.000 C 221.394 153.000,225.216 149.656,229.398 145.568 L 237.000 138.137 237.000 123.047 L 237.000 107.957 231.511 102.467 C 225.610 96.566,220.132 93.000,216.970 93.000 C 215.886 93.000,215.000 92.550,215.000 92.000 C 215.000 91.394,210.667 91.000,204.000 91.000 C 197.333 91.000,193.000 91.394,193.000 92.000 C 193.000 92.550,191.650 93.000,190.000 93.000 C 188.350 93.000,187.000 93.450,187.000 94.000 C 187.000 94.550,186.100 95.000,185.000 95.000 C 183.900 95.000,183.000 95.450,183.000 96.000 C 183.000 96.550,182.317 97.000,181.481 97.000 C 179.634 97.000,167.000 109.441,167.000 111.261 C 167.000 111.974,166.100 113.207,165.000 114.000 C 163.900 114.793,163.000 116.242,163.000 117.221 C 163.000 118.199,162.550 119.000,162.000 119.000 C 161.450 119.000,161.000 119.900,161.000 121.000 C 161.000 122.100,160.550 123.000,160.000 123.000 C 159.450 123.000,159.000 124.350,159.000 126.000 C 159.000 127.650,158.550 129.000,158.000 129.000 C 157.450 129.000,157.000 130.350,157.000 132.000 C 157.000 133.650,156.550 135.000,156.000 135.000 C 155.450 135.000,155.000 136.800,155.000 139.000 C 155.000 142.333,154.667 143.000,153.000 143.000 C 151.900 143.000,151.000 143.450,151.000 144.000 C 151.000 144.550,149.902 145.000,148.559 145.000 C 147.216 145.000,145.840 145.450,145.500 146.000 C 145.160 146.550,143.559 147.000,141.941 147.000 C 140.323 147.000,139.000 147.450,139.000 148.000 C 139.000 148.550,136.750 149.000,134.000 149.000 C 131.250 149.000,129.000 148.550,129.000 148.000 C 129.000 147.450,128.293 147.000,127.429 147.000 C 125.431 147.000,123.640 145.200,121.053 140.594 C 118.809 136.600,117.951 119.000,120.000 119.000 C 120.550 119.000,121.000 118.100,121.000 117.000 C 121.000 115.900,121.450 115.000,122.000 115.000 C 122.550 115.000,123.000 114.100,123.000 113.000 C 123.000 111.900,123.450 111.000,124.000 111.000 C 124.550 111.000,125.000 110.306,125.000 109.458 C 125.000 108.610,125.900 106.950,127.000 105.770 C 128.100 104.589,129.000 103.033,129.000 102.311 C 129.000 101.590,129.374 101.000,129.831 101.000 C 130.288 101.000,131.301 99.763,132.081 98.252 C 134.054 94.432,153.601 75.000,155.471 75.000 C 156.312 75.000,157.000 74.550,157.000 74.000 C 157.000 73.450,157.801 73.000,158.779 73.000 C 159.758 73.000,161.207 72.100,162.000 71.000 C 162.793 69.900,164.242 69.000,165.221 69.000 C 166.199 69.000,167.000 68.550,167.000 68.000 C 167.000 67.450,167.900 67.000,169.000 67.000 C 170.100 67.000,171.000 66.550,171.000 66.000 C 171.000 65.450,172.350 65.000,174.000 65.000 C 175.650 65.000,177.000 64.550,177.000 64.000 C 177.000 63.360,186.000 63.000,202.000 63.000 C 218.000 63.000,227.000 63.360,227.000 64.000 M218.582 259.324 L 225.000 265.647 225.000 274.842 L 225.000 284.037 218.519 290.519 L 212.037 297.000 199.042 297.000 L 186.046 297.000 180.523 291.651 L 175.000 286.301 175.000 273.871 C 175.000 262.589,175.185 261.308,177.000 260.000 C 178.100 259.207,179.000 257.964,179.000 257.237 C 179.000 253.589,181.173 253.077,196.832 253.038 L 212.165 253.000 218.582 259.324 " stroke="none" fill="#ffffff" fill-rule="evenodd"></path></g></svg>